#!OML:ASF I:\Actors\actors\Patient Classification 1\Patient 1\Session 1\Subject1.ASF
:FULLY-SPECIFIED
:DEGREES
628
root 0.118043 17.5564 8.38553 3.7364 1.46352 -9.84218
lowerback 0.434304 -0.0814451 7.86193
upperback -7.01687 0.329497 1.21159
thorax -7.61632 -0.28862 -3.1402
lowerneck -13.9767 -4.41452 -2.25509
upperneck 27.9006 -8.29103 8.19566
head 11.9317 -2.97449 2.23547
rclavicle -1.96797e-014 3.65764e-014
rhumerus 29.1092 48.8012 -70.4259
rradius 134.262
rwrist -1.69307
rhand -34.1931 -69.9994
rfingers 7.12502
rthumb -7.36599 459.851
lclavicle -1.96797e-014 3.65764e-014
lhumerus 29.3018 -50.5015 70.4194
lradius 127.196
lwrist 2.28915
lhand -53.214 -50.6801
lfingers 7.12502
lthumb -25.6707 -22.3909
rfemur -3.06731 16.7471 30.4853
rtibia 10.1181
rfoot -14.2172 -16.9114
rtoes 0.738674
lfemur 2.16738 -28.1314 -4.71809
ltibia 1.44396
lfoot -10.0258 32.2086
ltoes -11.1723
629
root 0.0932463 17.5624 8.37563 3.54726 1.68455 -9.58999
lowerback 0.0992127 -0.142679 7.52674
upperback -6.90071 0.186866 1.09519
thorax -7.30358 -0.328586 -3.06774
lowerneck -13.6416 -4.25231 -2.5499
upperneck 27.7533 -8.11654 8.71574
head 11.8334 -2.87734 2.51146
rclavicle 1.18277e-014 -3.10104e-014
rhumerus 23.4969 43.3422 -74.0626
rradius 125.402
rwrist -0.750466
rhand -43.5785 -62.4598
rfingers 7.12502
rthumb -16.4154 451.785
lclavicle 1.18277e-014 -3.10104e-014
lhumerus 27.037 -45.0159 71.4333
lradius 117.712
lwrist 0.48266
lhand -55.7522 -56.6359
lfingers 7.12502
lthumb -28.0994 -28.7208
rfemur -2.94061 16.7391 30.3558
rtibia 10.2386
rfoot -14.322 -17.1623
rtoes 1.24565
lfemur 2.23579 -28.0955 -4.96568
ltibia 1.45071
lfoot -10.013 32.0468
ltoes -11.061
630
root 0.0717913 17.571 8.36246 3.28295 1.9217 -9.19774
lowerback -0.243717 -0.145711 7.00517
upperback -6.82021 0.114147 0.868155
thorax -7.01468 -0.329551 -3.01268
lowerneck -13.2662 -4.09877 -1.98007
upperneck 28.1465 -8.03837 8.57829
head 11.8753 -2.79702 2.38797
rclavicle 5.46658e-015 3.97569e-015
rhumerus 20.238 37.5618 -75.7034
rradius 114.843
rwrist 0.389859
rhand -43.2575 -65.3902
rfingers 7.12502
rthumb -16.1063 454.741
lclavicle 5.46658e-015 3.97569e-015
lhumerus 26.2846 -40.4134 71.3131
lradius 106.672
lwrist -1.1396
lhand -59.4111 -62.0198
lfingers 7.12502
lthumb -31.5911 -34.7327
rfemur -2.81046 16.6624 30.0621
rtibia 10.4885
rfoot -14.477 -17.3834
rtoes 1.66247
lfemur 2.40862 -28.0707 -5.44903
ltibia 1.43491
lfoot -9.93134 31.8255
ltoes -10.8663
631
root 0.0571288 17.5818 8.34184 2.91524 2.10893 -8.81703
lowerback -0.662919 -0.0537259 6.52093
upperback -6.64519 0.160767 0.55011
thorax -6.56936 -0.271077 -3.08019
lowerneck -13.1203 -4.44976 -1.98198
upperneck 28.6576 -8.66328 8.75258
head 12.1033 -3.04462 2.37356
rclavicle 5.56597e-015 -1.19271e-014
rhumerus 18.7591 30.8574 -77.0554
rradius 102.976
rwrist -0.772465
rhand -38.4779 -59.8048
rfingers 7.12502
rthumb -11.5002 630.531
lclavicle 5.56597e-015 -1.19271e-014
lhumerus 27.4215 -36.8077 70.3353
lradius 92.9504
lwrist -2.13006
lhand -57.9319 -65.8106
lfingers 7.12502
lthumb -30.1809 -38.2563
rfemur -2.69958 16.3976 29.7461
rtibia 10.9049
rfoot -14.5839 -17.4368
rtoes 1.4952
lfemur 2.62047 -27.8048 -5.95242
ltibia 1.52416
lfoot -9.57623 31.3684
ltoes -11.674
632
root 0.0495967 17.5907 8.30838 2.34841 2.20649 -8.59212
lowerback -1.09721 -0.0164013 6.06145
upperback -6.1623 0.139359 0.430503
thorax -5.79603 -0.227139 -2.94876
lowerneck -12.4524 -4.35911 -1.8143
upperneck 28.5368 -8.63177 9.02478
head 11.9235 -3.00373 2.46339
rclavicle 1.39149e-015 7.95139e-016
rhumerus 20.0881 25.249 -77.0781
rradius 89.3757
rwrist -0.129439
rhand -33.9221 -54.0269
rfingers 7.12502
rthumb -7.10437 636.112
lclavicle 1.39149e-015 7.95139e-016
lhumerus 30.346 -33.2275 69.634
lradius 77.0365
lwrist -6.78362
lhand -58.1637 -71.5978
lfingers 7.12502
lthumb -30.402 -44.0841
rfemur -2.53902 16.0022 29.6002
rtibia 11.5082
rfoot -14.6527 -17.3612
rtoes 0.8416
lfemur 2.96278 -27.4584 -6.36367
ltibia 1.75835
lfoot -9.40166 30.8308
ltoes -12.5702
633
root 0.0481247 17.5944 8.26001 1.66214 2.18909 -8.61048
lowerback -1.11274 -0.0488669 5.7922
upperback -5.58474 0.0711192 0.534003
thorax -5.17484 -0.216 -2.6894
lowerneck -12.0657 -4.19548 -1.6607
upperneck 28.4162 -8.43902 9.12936
head 11.7816 -2.90366 2.50947
rclavicle -8.44835e-015 3.97569e-015
rhumerus 22.7524 21.6775 -76.8626
rradius 76.194
rwrist 4.94595
rhand -28.1795 -54.5266
rfingers 7.12502
rthumb -1.55931 635.499
lclavicle -8.44835e-015 3.97569e-015
lhumerus 34.1768 -29.1358 70.5853
lradius 60.1714
lwrist -13.9568
lhand -55.8661 -62.61
lfingers 7.12502
lthumb -28.2082 -34.7128
rfemur -2.44584 15.5636 29.7067
rtibia 12.3665
rfoot -14.7779 -17.1572
rtoes 0.257317
lfemur 3.38432 -27.1906 -6.54205
ltibia 2.03747
lfoot -9.59892 30.3963
ltoes -12.5062
634
root 0.0543214 17.5943 8.20111 1.04373 2.08746 -8.96989
lowerback -0.33856 0.0299783 6.15166
upperback -5.47806 0.238059 0.553686
thorax -5.49293 -0.156066 -2.87762
lowerneck -11.4583 -4.27083 -1.54643
upperneck 28.502 -8.62624 9.29682
head 11.709 -2.97231 2.53956
rclavicle -1.49089e-014 1.66979e-014
rhumerus 24.6558 17.2226 -78.7116
rradius 63.062
rwrist 11.5196
rhand -28.4608 -51.036
rfingers 7.12502
rthumb -1.83098 638.992
lclavicle -1.49089e-014 1.66979e-014
lhumerus 37.8593 -25.6557 72.6242
lradius 44.1796
lwrist -21.5377
lhand -56.5561 -64.3755
lfingers 7.12502
lthumb -28.8675 -36.589
rfemur -2.54752 15.1897 30.1377
rtibia 13.3772
rfoot -14.9452 -16.8577
rtoes 0.0105257
lfemur 3.67893 -26.8956 -6.26972
ltibia 2.30961
lfoot -9.71377 30.056
ltoes -12.5863
635
root 0.0683305 17.5953 8.13957 0.668061 1.95568 -9.62797
lowerback 0.48803 0.0449804 6.80581
upperback -5.30353 0.348426 0.79
thorax -5.77775 -0.130883 -3.00457
lowerneck -11.3162 -4.26677 -1.14402
upperneck 28.2691 -8.60704 9.04638
head 11.556 -2.96327 2.37761
rclavicle -1.12313e-014 1.35174e-014
rhumerus 27.5721 13.367 -79.9209
rradius 51.6505
rwrist 17.2605
rhand -25.8262 -48.5731
rfingers 7.12502
rthumb 0.713623 641.448
lclavicle -1.12313e-014 1.35174e-014
lhumerus 39.7205 -21.2524 76.6274
lradius 33.6369
lwrist -26.9774
lhand -54.6801 -54.5723
lfingers 7.12502
lthumb -27.0742 -26.4934
rfemur -2.89181 14.933 30.8175
rtibia 14.3184
rfoot -15.0723 -16.5652
rtoes -0.279681
lfemur 3.68279 -26.5716 -5.52358
ltibia 2.5266
lfoot -9.49557 29.8621
ltoes -13.3854
636
root 0.0881116 17.6019 8.08462 0.688785 1.84321 -10.2018
lowerback 0.769613 0.0561811 7.27536
upperback -5.09368 0.410877 1.11027
thorax -5.71511 -0.106512 -2.93661
lowerneck -11.2965 -4.27315 -0.991774
upperneck 27.9087 -8.57017 8.92174
head 11.3957 -2.95899 2.30417
rclavicle 2.88238e-015 -3.57812e-014
rhumerus 30.5602 11.4876 -80.2269
rradius 42.3751
rwrist 18.5183
rhand -26.0416 -48.5679
rfingers 7.12502
rthumb 0.50553 641.453
lclavicle 2.88238e-015 -3.57812e-014
lhumerus 40.9357 -14.6825 83.4049
lradius 24.9715
lwrist -34.5339
lhand -54.4557 -56.7823
lfingers 7.12502
lthumb -26.8595 -28.6702
rfemur -3.45976 14.8727 31.2942
rtibia 14.9093
rfoot -15.0938 -16.4071
rtoes -0.523253
lfemur 3.35144 -26.4327 -4.74745
ltibia 2.60686
lfoot -9.27208 29.9023
ltoes -13.7686
637
root 0.111676 17.6157 8.04232 1.12762 1.80015 -10.4158
lowerback 0.737966 0.105608 7.43829
upperback -5.11231 0.490869 1.30684
thorax -5.71091 -0.0694222 -2.82604
lowerneck -11.8762 -4.4959 -1.39514
upperneck 28.2513 -8.95022 9.237
head 11.7105 -3.10346 2.43155
rclavicle 8.64713e-015 -1.51076e-014
rhumerus 31.9469 9.10142 -81.4064
rradius 36.6632
rwrist 21.7727
rhand -26.064 -47.3749
rfingers 7.12502
rthumb 0.483884 642.646
lclavicle 8.64713e-015 -1.51076e-014
lhumerus 42.1312 -3.75035 95.2481
lradius 17.1911
lwrist -50.6371
lhand -53.5258 -50.0905
lfingers 7.12502
lthumb -25.9693 -21.8448
rfemur -4.16939 15.1414 31.2893
rtibia 15.0082
rfoot -14.9762 -16.4961
rtoes -0.0883593
lfemur 2.69332 -26.5746 -4.28263
ltibia 2.58648
lfoot -9.39842 30.1201
ltoes -13.0616
638
root 0.137131 17.6328 8.01361 1.79238 1.89068 -10.3126
lowerback 0.434952 0.123031 7.31231
upperback -5.22308 0.491722 1.40043
thorax -5.65447 -0.0611534 -2.65636
lowerneck -12.4374 -4.4024 -1.19068
upperneck 28.8859 -8.86021 8.94616
head 12.0458 -3.03222 2.30118
rclavicle 1.42131e-014 -1.27222e-014
rhumerus 32.1787 7.35967 -82.6497
rradius 33.6601
rwrist 25.9085
rhand -25.8936 -45.4017
rfingers 7.12502
rthumb 0.648483 644.62
lclavicle 1.42131e-014 -1.27222e-014
lhumerus 47.9845 17.3464 119.843
lradius 10.8352
lwrist -83.0985
lhand -54.6389 -53.0615
lfingers 7.12502
lthumb -27.0348 -24.9765
rfemur -4.86088 15.6781 30.9136
rtibia 14.7345
rfoot -14.7977 -16.9255
rtoes 0.558371
lfemur 1.86336 -26.9832 -4.12928
ltibia 2.46646
lfoot -9.53959 30.4936
ltoes -12.3848
639
root 0.165338 17.6479 7.99857 2.40344 2.09544 -10.08
lowerback -0.0616807 0.105094 7.11637
upperback -5.2656 0.418975 1.42492
thorax -5.42048 -0.0807645 -2.51618
lowerneck -12.6486 -4.29066 -0.835103
upperneck 29.1166 -8.62989 8.35542
head 12.1152 -2.94659 2.05079
rclavicle -3.8763e-015 -2.22639e-014
rhumerus 33.5726 5.40824 -84.0134
rradius 28.8085
rwrist 33.139
rhand -26.055 -46.6793
rfingers 7.12502
rthumb 0.492646 643.342
lclavicle -3.8763e-015 -2.22639e-014
lhumerus 50.3135 15.5676 121.077
lradius 6.84475
lwrist -82.6339
lhand -52.763 -40.4742
lfingers 7.12502
lthumb -25.2387 -12.1234
rfemur -5.27128 16.2395 30.4309
rtibia 14.1647
rfoot -14.6067 -17.5506
rtoes 0.979657
lfemur 1.27 -27.7876 -4.26526
ltibia 2.13334
lfoot -9.34924 31.1615
ltoes -12.5029
